<svg width="64" height="64" viewBox="0 0 64 64" fill="none" xmlns="http://www.w3.org/2000/svg">
  <!-- Background circle -->
  <rect width="64" height="64" rx="16" fill="#3B82F6"/>
  
  <!-- Money/Budget symbol -->
  <circle cx="32" cy="32" r="20" fill="white" opacity="0.2"/>
  <circle cx="32" cy="32" r="16" fill="white"/>
  
  <!-- Peso sign or dollar sign style -->
  <path d="M32 18V20H28C26.8954 20 26 20.8954 26 22V24C26 25.1046 26.8954 26 28 26H36C37.1046 26 38 26.8954 38 28V30C38 31.1046 37.1046 32 36 32H26M32 20V32M32 32V34M32 34H36C37.1046 34 38 34.8954 38 36V38C38 39.1046 37.1046 40 36 40H28C26.8954 40 26 39.1046 26 38V36" stroke="#3B82F6" stroke-width="2.5" stroke-linecap="round" stroke-linejoin="round"/>
  
  <!-- Chart bars at bottom -->
  <rect x="20" y="44" width="4" height="6" fill="#10B981" rx="1"/>
  <rect x="26" y="42" width="4" height="8" fill="#10B981" rx="1"/>
  <rect x="32" y="40" width="4" height="10" fill="#10B981" rx="1"/>
  <rect x="38" y="43" width="4" height="7" fill="#10B981" rx="1"/>
</svg>
