<svg width="64" height="64" viewBox="0 0 64 64" fill="none" xmlns="http://www.w3.org/2000/svg">
  <rect width="64" height="64" rx="12" fill="#3B82F6"/>
  <path d="M32 12C21.5066 12 13 20.5066 13 31C13 41.4934 21.5066 50 32 50C42.4934 50 51 41.4934 51 31C51 20.5066 42.4934 12 32 12Z" fill="white"/>
  <path d="M32 18C24.268 18 18 24.268 18 32C18 39.732 24.268 46 32 46C39.732 46 46 39.732 46 32C46 24.268 39.732 18 32 18Z" fill="#3B82F6"/>
  <path d="M32 24C27.5817 24 24 27.5817 24 32C24 36.4183 27.5817 40 32 40C36.4183 40 40 36.4183 40 32C40 27.5817 36.4183 24 32 24Z" fill="white"/>
  <path d="M28 30H36V34H28V30Z" fill="#3B82F6"/>
  <path d="M30 26H34V30H30V26Z" fill="#3B82F6"/>
  <path d="M30 34H34V38H30V34Z" fill="#3B82F6"/>
</svg>
